# xmcd
#
# Track frame offsets:
#	150
#	13917
#	29214
#	46157
#	64658
#	84417
#	98301
#	120896
#	136878
#	160073
#	174349
#
# Disc length: 2595 seconds
#
# Revision: 1
# Processed by: cddbd v1.5.2PL0 Copyright (c) Steve Scherf et al.
# Submitted via: audiograbber 1.83.01
#
DISCID=7c0a210b
DTITLE=Jessie and The Gents - Walkin' Those Boots
DYEAR=2018
DGENRE=Bluegrass
TTITLE0=Walkin' Those Boots
TTITLE1=Miss Lazybone Faye
TTITLE2=Old River
TTITLE3=Eight More Miles To Louisville
TTITLE4=Heaven Is Closed
TTITLE5=Lâche Pas La Patate
TTITLE6=Junior Heywood
TTITLE7=On A Mountain Top
TTITLE8=Carolina In My Mind
TTITLE9=You Say - I Say
TTITLE10=The Deal
EXTD=
EXTT0=
EXTT1=
EXTT2=
EXTT3=
EXTT4=
EXTT5=
EXTT6=
EXTT7=
EXTT8=
EXTT9=
EXTT10=
PLAYORDER=
